<svg width="69" height="69" viewBox="0 0 69 69" fill="none" xmlns="http://www.w3.org/2000/svg">
<path d="M69 34.5C69 53.5538 53.5538 69 34.5 69C15.4462 69 0 53.5538 0 34.5C0 15.4462 15.4462 0 34.5 0C53.5538 0 69 15.4462 69 34.5Z" fill="#F9F2F2"/>
<path d="M33.8365 17.25C31.6675 17.25 30.0089 18.9087 30.0089 21.0777V28.733C30.0089 30.902 31.6675 32.5607 33.8365 32.5607H41.4919L46.5954 37.6642V32.5607C48.7644 32.5607 50.4231 30.902 50.4231 28.733V21.0777C50.4231 18.9087 48.7644 17.25 46.5954 17.25H33.8365ZM39.18 21.0777H41.3719L43.5256 28.733H41.6118L41.0925 26.8192H39.1787L38.7015 28.733H37.0263L39.18 21.0777ZM40.216 22.3535C40.0884 22.8639 39.9455 23.4865 39.8166 23.8693L39.4594 25.5433H40.9739L40.6141 23.868C40.3602 23.4865 40.216 22.8639 40.216 22.3535ZM21.0777 30.0089C18.9087 30.0089 17.25 31.6675 17.25 33.8365V41.4919C17.25 43.6609 18.9087 45.3195 21.0777 45.3195V50.4231L26.1812 45.3195H33.8365C36.0056 45.3195 37.6642 43.6609 37.6642 41.4919V33.8365H33.8365C31.4124 33.8365 29.4909 32.1779 28.8529 30.0089H21.0777ZM26.9391 33.7166C29.1081 33.7166 30.1288 35.5028 30.1288 37.5443C30.1288 39.3305 29.5151 40.4635 28.4944 40.9739C29.0048 41.229 29.6095 41.3643 30.2475 41.4919L29.7703 42.7678C28.8772 42.5126 27.9509 42.1145 27.0577 41.7305C26.9302 41.6029 26.7069 41.6118 26.5793 41.6118C25.0482 41.4842 23.6294 40.216 23.6294 37.6642C23.6294 35.4952 24.8977 33.7166 26.9391 33.7166ZM26.9391 35.1124C25.9184 35.1124 25.4233 36.2607 25.4233 37.6642C25.4233 39.1953 25.9184 40.216 26.9391 40.216C27.9598 40.216 28.4931 39.0677 28.4931 37.6642C28.4931 36.2607 27.9598 35.1124 26.9391 35.1124Z" fill="#131525"/>
</svg>
