<svg width="69" height="69" viewBox="0 0 69 69" fill="none" xmlns="http://www.w3.org/2000/svg">
<path d="M69 34.5C69 53.5538 53.5538 69 34.5 69C15.4462 69 0 53.5538 0 34.5C0 15.4462 15.4462 0 34.5 0C53.5538 0 69 15.4462 69 34.5Z" fill="#F9F2F2"/>
<path d="M25.5433 46.2764C24.7831 46.2764 24.1325 46.006 23.5916 45.4651C23.0498 44.9233 22.7788 44.2722 22.7788 43.512V31.0721C22.7788 30.6344 22.877 30.2198 23.0733 29.8281C23.2686 29.4365 23.5391 29.114 23.8846 28.8606L32.1779 22.6406C32.4313 22.4563 32.6962 22.3181 32.9727 22.226C33.2491 22.1338 33.5371 22.0877 33.8365 22.0877C34.136 22.0877 34.424 22.1338 34.7004 22.226C34.9769 22.3181 35.2418 22.4563 35.4952 22.6406L43.7885 28.8606C44.134 29.114 44.4049 29.4365 44.6012 29.8281C44.7966 30.2198 44.8942 30.6344 44.8942 31.0721V43.512C44.8942 44.2722 44.6238 44.9233 44.0829 45.4651C43.541 46.006 42.89 46.2764 42.1298 46.2764H36.601V36.601H31.0721V46.2764H25.5433Z" fill="#131525"/>
</svg>
