<svg width="70" height="70" viewBox="0 0 70 70" fill="none" xmlns="http://www.w3.org/2000/svg">
<path d="M70 35C70 54.33 54.33 70 35 70C15.67 70 0 54.33 0 35C0 15.67 15.67 0 35 0C54.33 0 70 15.67 70 35Z" fill="#F9F2F2"/>
<path d="M25.0454 42.8611C27.8034 42.8611 30.0023 41.862 31.6422 39.8639C31.6422 39.7237 31.549 39.601 31.3627 39.4958L30.3005 37.4977C29.816 38.4442 29.0985 39.2066 28.1481 39.785C27.1978 40.3634 26.1635 40.6526 25.0454 40.6526H22.3061C22.0079 40.6526 21.7377 40.7666 21.4955 40.9944C21.2532 41.2223 21.1321 41.4764 21.1321 41.7569C21.1321 42.0373 21.2532 42.2915 21.4955 42.5193C21.7377 42.7472 22.0079 42.8611 22.3061 42.8611H25.0454ZM45.8421 24.1417C45.2457 23.6509 44.6867 23.6509 44.1649 24.1417C43.6059 24.6675 43.6059 25.1933 44.1649 25.7191L45.6744 27.1915H41.0342C38.3135 27.1915 36.1332 28.1905 34.4934 30.1887C34.4934 30.2938 34.5679 30.4165 34.717 30.5568L35.7792 32.5549C36.2637 31.6084 36.9811 30.846 37.9315 30.2676C38.8819 29.6891 39.9161 29.3999 41.0342 29.3999H45.6744L44.1649 30.8723C43.6059 31.3981 43.6059 31.9239 44.1649 32.4497C44.3885 32.6601 44.6681 32.7652 45.0035 32.7652C45.2644 32.7652 45.5439 32.6601 45.8421 32.4497L49.42 29.0844C49.9045 28.5586 49.9045 28.0328 49.42 27.507L45.8421 24.1417ZM45.8421 37.6028C45.2457 37.1121 44.6867 37.1121 44.1649 37.6028C43.6059 38.1287 43.6059 38.6545 44.1649 39.1803L45.6744 40.6526H41.0342C39.9161 40.6526 38.8726 40.3634 37.9036 39.785C36.9345 39.2066 36.1891 38.4442 35.6674 37.4977L34.3815 35.0263L33.0398 32.5549L32.4808 31.5558C31.8099 30.2237 30.8036 29.1633 29.4619 28.3746C28.1202 27.5858 26.648 27.1915 25.0454 27.1915H22.3061C22.0079 27.1915 21.7377 27.3054 21.4955 27.5332C21.2532 27.7611 21.1321 28.0153 21.1321 28.2957C21.1321 28.5761 21.2532 28.8303 21.4955 29.0581C21.7377 29.286 22.0079 29.3999 22.3061 29.3999H25.0454C27.4307 29.3999 29.2197 30.4516 30.4123 32.5549L31.754 35.0263L33.0398 37.4977L33.6548 38.4967C34.4002 39.8288 35.4344 40.8893 36.7575 41.678C38.0806 42.4667 39.5434 42.8611 41.146 42.8611H45.8421L44.2767 44.3334C43.7177 44.8593 43.7177 45.3851 44.2767 45.9109C44.5004 46.1212 44.7799 46.2264 45.1153 46.2264C45.4135 46.2264 45.693 46.1212 45.9539 45.9109L49.5318 42.5456C50.0163 42.0198 50.0163 41.494 49.5318 40.9681L45.8421 37.6028Z" fill="#131525"/>
</svg>
