<svg width="69" height="69" viewBox="0 0 69 69" fill="none" xmlns="http://www.w3.org/2000/svg">
<path d="M69 34.5C69 53.5538 53.5538 69 34.5 69C15.4462 69 0 53.5538 0 34.5C0 15.4462 15.4462 0 34.5 0C53.5538 0 69 15.4462 69 34.5Z" fill="#F9F2F2"/>
<path d="M35.2188 29.6899H32.4543V26.9255H35.2188M35.2188 40.7476H32.4543V32.4543H35.2188M33.8365 20.0144C32.0214 20.0144 30.224 20.3719 28.547 21.0666C26.8701 21.7612 25.3463 22.7793 24.0628 24.0628C21.4707 26.655 20.0144 30.1707 20.0144 33.8365C20.0144 37.5024 21.4707 41.0181 24.0628 43.6103C25.3463 44.8938 26.8701 45.9119 28.547 46.6065C30.224 47.3011 32.0214 47.6587 33.8365 47.6587C37.5024 47.6587 41.0181 46.2024 43.6103 43.6103C46.2024 41.0181 47.6587 37.5024 47.6587 33.8365C47.6587 32.0214 47.3011 30.224 46.6065 28.547C45.9119 26.8701 44.8938 25.3463 43.6103 24.0628C42.3268 22.7793 40.803 21.7612 39.126 21.0666C37.4491 20.3719 35.6517 20.0144 33.8365 20.0144Z" fill="#131525"/>
</svg>
