<svg width="22" height="17" viewBox="0 0 22 17" fill="none" xmlns="http://www.w3.org/2000/svg">
<path d="M3.18519 14.452C5.27338 14.452 6.93828 13.6956 8.1799 12.1827C8.1799 12.0765 8.10935 11.9836 7.96826 11.904L7.16403 10.3911C6.79719 11.1077 6.25398 11.685 5.5344 12.123C4.81482 12.5609 4.03175 12.7799 3.18519 12.7799H1.11112C0.885368 12.7799 0.680783 12.8661 0.497361 13.0386C0.31394 13.2112 0.222229 13.4036 0.222229 13.6159C0.222229 13.8283 0.31394 14.0207 0.497361 14.1932C0.680783 14.3657 0.885368 14.452 1.11112 14.452H3.18519ZM18.9312 0.278689C18.4797 -0.0928962 18.0564 -0.0928962 17.6614 0.278689C17.2381 0.676815 17.2381 1.07494 17.6614 1.47307L18.8042 2.58782H15.291C13.231 2.58782 11.5803 3.34426 10.3386 4.85714C10.3386 4.93677 10.3951 5.02966 10.5079 5.13583L11.3122 6.64871C11.679 5.93208 12.2222 5.3548 12.9418 4.91686C13.6614 4.47892 14.4445 4.25995 15.291 4.25995H18.8042L17.6614 5.37471C17.2381 5.77283 17.2381 6.17096 17.6614 6.56909C17.8307 6.72834 18.0423 6.80796 18.2963 6.80796C18.4938 6.80796 18.7055 6.72834 18.9312 6.56909L21.6402 4.02108C22.0071 3.62295 22.0071 3.22482 21.6402 2.8267L18.9312 0.278689ZM18.9312 10.4707C18.4797 10.0991 18.0564 10.0991 17.6614 10.4707C17.2381 10.8689 17.2381 11.267 17.6614 11.6651L18.8042 12.7799H15.291C14.4445 12.7799 13.6543 12.5609 12.9206 12.123C12.187 11.685 11.6226 11.1077 11.2275 10.3911L10.254 8.51991L9.2381 6.64871L8.81482 5.89227C8.30689 4.88368 7.54498 4.0808 6.52911 3.48361C5.51323 2.88642 4.3986 2.58782 3.18519 2.58782H1.11112C0.885368 2.58782 0.680783 2.67408 0.497361 2.8466C0.31394 3.01913 0.222229 3.21155 0.222229 3.42389C0.222229 3.63622 0.31394 3.82865 0.497361 4.00117C0.680783 4.17369 0.885368 4.25995 1.11112 4.25995H3.18519C4.99119 4.25995 6.34569 5.05621 7.24868 6.64871L8.26456 8.51991L9.2381 10.3911L9.70371 11.1475C10.2681 12.1561 11.0512 12.959 12.0529 13.5562C13.0547 14.1534 14.1623 14.452 15.3757 14.452H18.9312L17.746 15.5667C17.3228 15.9649 17.3228 16.363 17.746 16.7611C17.9154 16.9204 18.127 17 18.381 17C18.6067 17 18.8184 16.9204 19.0159 16.7611L21.7249 14.2131C22.0917 13.815 22.0917 13.4169 21.7249 13.0187L18.9312 10.4707Z" fill="#131525"/>
</svg>
